<svg width="16" height="19" viewBox="0 0 16 19" fill="none" xmlns="http://www.w3.org/2000/svg">
<path d="M4.93698 3.43113C5.4531 1.97362 4.85497 0 3.27752 0C1.7003 0 1.10217 1.97362 1.61859 3.43113H4.93698Z" fill="#222222"/>
<path d="M9.92598 8.78738C7.1057 8.78738 4.81958 11.0735 4.81958 13.8936C4.81954 16.7135 7.1057 19 9.92598 19C12.746 19 15.0321 16.7135 15.0321 13.8936C15.0321 11.0735 12.746 8.78738 9.92598 8.78738ZM11.1225 15.7403C10.7612 15.7256 10.4809 15.4034 10.4961 15.0208C10.5113 14.6374 10.8163 14.339 11.1773 14.3529C11.5386 14.3676 11.8187 14.6894 11.8035 15.0723C11.7882 15.4552 11.4835 15.7541 11.1225 15.7403ZM12.1434 13.448C11.804 13.5345 11.4522 13.3034 11.3577 12.9316C11.2638 12.5609 11.4619 12.19 11.8013 12.1036C12.1409 12.0174 12.4925 12.2479 12.5869 12.6194C12.6814 12.9907 12.483 13.3619 12.1434 13.448ZM13.5269 15.3197C13.2072 15.3197 12.9482 15.0089 12.9482 14.626C12.9482 14.2426 13.2072 13.9317 13.5269 13.9317C13.8464 13.9317 14.1054 14.2426 14.1054 14.626C14.1054 15.0089 13.8464 15.3197 13.5269 15.3197Z" fill="#222222"/>
<path d="M6.00871 9.41629C5.78542 8.86002 5.49096 8.31919 5.11029 7.75709C4.41241 6.72649 4.41048 5.54381 4.58141 4.63374H1.97418C2.1451 5.54381 2.14317 6.72653 1.44529 7.75709C0.121602 9.71161 -0.192306 11.4038 0.101377 14.415C0.345705 16.9191 1.20097 18.6905 1.20097 18.6905H5.35462C5.35462 18.6905 5.47207 18.4464 5.63249 18.0129C4.60441 16.9418 3.96832 15.4918 3.96832 13.8936C3.96832 12.1086 4.7612 10.5089 6.00871 9.41629Z" fill="#222222"/>
</svg>
