<svg width="16" height="16" viewBox="0 0 16 16" fill="none" xmlns="http://www.w3.org/2000/svg">
<path fill-rule="evenodd" clip-rule="evenodd" d="M13.7143 0H11.4286C10.1663 0 9.14286 1.02343 9.14286 2.28571V4.57143C9.14286 5.83371 10.1663 6.85714 11.4286 6.85714H13.7143C14.9766 6.85714 16 5.83371 16 4.57143V2.28571C16 1.02343 14.9766 0 13.7143 0ZM13.7143 9.14286H11.4286C10.1663 9.14286 9.14286 10.1663 9.14286 11.4286V13.7143C9.14286 14.9766 10.1663 16 11.4286 16H13.7143C14.9766 16 16 14.9766 16 13.7143V11.4286C16 10.1663 14.9766 9.14286 13.7143 9.14286ZM4.57143 9.14286H2.28571C1.02343 9.14286 0 10.1663 0 11.4286V13.7143C0 14.9766 1.02343 16 2.28571 16H4.57143C5.83371 16 6.85714 14.9766 6.85714 13.7143V11.4286C6.85714 10.1663 5.83371 9.14286 4.57143 9.14286ZM4.57143 0H2.28571C1.02343 0 0 1.02343 0 2.28571V4.57143C0 5.83371 1.02343 6.85714 2.28571 6.85714H4.57143C5.83371 6.85714 6.85714 5.83371 6.85714 4.57143V2.28571C6.85714 1.02343 5.83371 0 4.57143 0Z" fill="#222222"/>
</svg>
