<svg width="19" height="16" viewBox="0 0 19 16" fill="none" xmlns="http://www.w3.org/2000/svg">
<path fill-rule="evenodd" clip-rule="evenodd" d="M11.4304 4.07217e-07H3.76962C3.35292 -9.00455e-06 2.99333 -1.85037e-05 2.69574 0.0200944C2.3824 0.0412803 2.06899 0.0878688 1.75935 0.214928C1.06103 0.501506 0.506208 1.05117 0.216942 1.74301C0.0886923 2.04977 0.0416673 2.36027 0.0202828 2.6707C-1.86772e-05 2.96552 -9.08897e-06 3.32173 4.11034e-07 3.73456V10.0392C4.11034e-07 12.0267 0.159686 13.7496 1.48754 14.8109C2.1313 15.3255 2.9598 15.6104 3.93606 15.7757C4.91399 15.9414 6.12416 16 7.6 16C9.07582 16 10.286 15.9414 11.264 15.7757C12.2402 15.6104 13.0687 15.3255 13.7125 14.8109C14.7516 13.9803 15.0754 12.7447 15.1669 11.2941H16.15C17.7241 11.2941 19 10.03 19 8.47059V5.64706C19 4.08767 17.7241 2.82353 16.15 2.82353H15.1883C15.1859 2.77089 15.1831 2.71994 15.1798 2.6707C15.1583 2.36027 15.1113 2.04977 14.983 1.74301C14.6938 1.05117 14.1389 0.501506 13.4407 0.214928C13.131 0.0878688 12.8176 0.0412803 12.5043 0.0200944C12.2066 -1.85037e-05 11.8471 -9.00455e-06 11.4304 4.07217e-07ZM15.2 4.70588V9.41176H16.15C16.6747 9.41176 17.1 8.9904 17.1 8.47059V5.64706C17.1 5.12725 16.6747 4.70588 16.15 4.70588H15.2Z" fill="#FFE2A0"/>
</svg>
