<svg width="16" height="19" viewBox="0 0 16 19" fill="none" xmlns="http://www.w3.org/2000/svg">
<path fill-rule="evenodd" clip-rule="evenodd" d="M8 0C3.58172 0 0 3.80246 0 8.07501C0 12.3141 2.55332 16.9218 6.5371 18.6907C7.4657 19.1031 8.5343 19.1031 9.4629 18.6907C13.4467 16.9218 16 12.3141 16 8.07501C16 3.80246 12.4183 0 8 0ZM8 9.50001C9.1046 9.50001 10 8.64938 10 7.60001C10 6.55067 9.1046 5.70001 8 5.70001C6.8954 5.70001 6 6.55067 6 7.60001C6 8.64938 6.8954 9.50001 8 9.50001Z" fill="#F5F0EC" fill-opacity="0.5"/>
</svg>
