<svg width="21" height="21" viewBox="0 0 21 21" fill="none" xmlns="http://www.w3.org/2000/svg">
<path fill-rule="evenodd" clip-rule="evenodd" d="M10.4928 14.8235C10.5397 14.8236 10.7214 14.8255 10.9941 14.8729L10.9571 15.4782C10.9447 15.7994 10.6729 16.0588 10.3518 16.0588C9.63529 16.0588 9.14118 16.2688 8.80765 16.6888C8.05411 17.6523 8.31353 19.5671 8.47411 20.2341C8.52353 20.4194 8.47411 20.6171 8.36294 20.7653C8.23942 20.9135 8.06647 21 7.88118 21H5.55882C5.21294 21 4.94118 20.7282 4.94118 20.3824V14.8235H10.4928ZM17.3596 0.341677C17.4868 0.0847312 17.7709 -0.0474384 18.0538 0.015562C18.333 0.0822702 18.5294 0.330564 18.5294 0.61715V6.23901C19.9376 6.5256 21 7.77325 21 9.26426C21 10.7553 19.9376 12.0042 18.5294 12.2908V17.9114C18.5294 18.198 18.333 18.4475 18.0538 18.513C18.0072 18.5237 17.9596 18.5291 17.9118 18.529C17.6808 18.529 17.4658 18.4006 17.3596 18.1881C15.0854 13.6409 10.5457 13.5878 10.5 13.5878H4.32353C2.62006 13.5878 1.23529 12.203 1.23529 10.4996V9.88192H0.617652C0.276708 9.88192 0 9.60644 0 9.26427C0 8.92333 0.276708 8.64662 0.617641 8.64662H1.23529V8.02897C1.23529 6.32671 2.62006 4.94071 4.32353 4.94071H10.4988C10.6841 4.93947 15.0978 4.86412 17.3596 0.341677Z" fill="#222222"/>
</svg>
