<svg width="16" height="16" viewBox="0 0 16 16" fill="none" xmlns="http://www.w3.org/2000/svg">
<path d="M7.99999 0C3.6 0 0 3.592 0 8.01601C0 12.016 2.928 15.336 6.75199 15.936V10.336H4.71999V8.01601H6.75199V6.24799C6.75199 4.24 7.94399 3.136 9.77599 3.136C10.648 3.136 11.56 3.288 11.56 3.288V5.26399H10.552C9.55999 5.26399 9.24799 5.87999 9.24799 6.51201V8.01601H11.472L11.112 10.336H9.24799V15.936C11.1331 15.6382 12.8497 14.6764 14.0879 13.224C15.3261 11.7717 16.0043 9.92448 16 8.01601C16 3.592 12.4 0 7.99999 0Z" fill="#F5F0EC" fill-opacity="0.5"/>
</svg>
