<svg width="16" height="16" viewBox="0 0 16 16" fill="none" xmlns="http://www.w3.org/2000/svg">
<path d="M10.045 10.8382L9.68056 11.2218C9.68056 11.2218 8.81448 12.1336 6.45048 9.64472C4.08649 7.15584 4.95256 6.24406 4.95256 6.24406L5.18201 6.00249C5.74725 5.40739 5.80054 4.45198 5.30739 3.75448L4.29861 2.32769C3.68822 1.4644 2.50877 1.35036 1.80916 2.08691L0.553478 3.40891C0.206582 3.77413 -0.0258814 4.24756 0.00231056 4.77275C0.0744306 6.11637 0.648566 9.0072 3.85229 12.3802C7.24968 15.957 10.4374 16.0991 11.741 15.9705C12.1534 15.9298 12.5119 15.7074 12.8009 15.4032L13.9374 14.2067C14.7045 13.3991 14.4882 12.0146 13.5066 11.4496L11.9782 10.5698C11.3338 10.1989 10.5486 10.3078 10.045 10.8382Z" fill="#F5F0EC" fill-opacity="0.5"/>
<path d="M12 8C14.2091 8 16 6.20914 16 4C16 1.79086 14.2091 0 12 0C9.79088 0 8 1.79086 8 4C8 4.63987 8.15024 5.24466 8.41736 5.78099C8.4884 5.92352 8.512 6.08642 8.47088 6.24025L8.23264 7.13064C8.1292 7.5172 8.4828 7.8708 8.86936 7.76736L9.75976 7.52912C9.9136 7.488 10.0765 7.5116 10.219 7.58264C10.7554 7.84976 11.3602 8 12 8Z" fill="#F5F0EC" fill-opacity="0.5"/>
</svg>
