<svg width="23" height="16" viewBox="0 0 23 16" fill="none" xmlns="http://www.w3.org/2000/svg">
<path d="M22.2411 14.5106H21.6095C21.479 11.4567 20.542 8.8273 18.8784 6.87151C17.9826 5.81848 16.9044 5.00024 15.6737 4.43949C15.0628 4.16114 14.4209 3.95017 13.7528 3.80612C13.9828 3.42888 14.1154 2.98819 14.1154 2.51747C14.1154 1.12935 12.9648 0 11.5505 0C10.1362 0 8.98554 1.12935 8.98554 2.51747C8.98554 2.98827 9.11823 3.42914 9.34837 3.80647C4.82692 4.78437 1.85167 8.81822 1.61349 14.5106H0.758771C0.339697 14.5106 0 14.844 0 15.2553C0 15.6665 0.339697 16 0.758771 16H1.5975H21.626H22.2412C22.6603 16 23 15.6666 23 15.2553C22.9999 14.844 22.6602 14.5106 22.2411 14.5106Z" fill="#FFE2A0"/>
</svg>
