<svg width="16" height="14" viewBox="0 0 16 14" fill="none" xmlns="http://www.w3.org/2000/svg">
<path d="M1.39236 6.26132H15.3044C15.4889 6.26132 15.6658 6.3346 15.7963 6.46505C15.9267 6.59551 16 6.77243 16 6.95692C16 7.1414 15.9267 7.31833 15.7963 7.44878C15.6658 7.57924 15.4889 7.65252 15.3044 7.65252H1.39236C1.20787 7.65252 1.03094 7.57924 0.900492 7.44878C0.770042 7.31833 0.696755 7.1414 0.696755 6.95692C0.696755 6.77243 0.770042 6.59551 0.900492 6.46505C1.03094 6.3346 1.20787 6.26132 1.39236 6.26132Z" fill="#F5F0EC" fill-opacity="0.5"/>
<path d="M1.68043 6.9569L7.44975 12.7248C7.58037 12.8554 7.65374 13.0326 7.65374 13.2173C7.65374 13.402 7.58037 13.5792 7.44975 13.7098C7.31913 13.8404 7.14198 13.9138 6.95726 13.9138C6.77255 13.9138 6.59539 13.8404 6.46478 13.7098L0.204359 7.44939C0.13958 7.38477 0.0881853 7.30801 0.053118 7.2235C0.0180507 7.13899 0 7.04839 0 6.9569C0 6.8654 0.0180507 6.77481 0.053118 6.6903C0.0881853 6.60579 0.13958 6.52903 0.204359 6.46441L6.46478 0.203994C6.59539 0.0733788 6.77255 0 6.95726 0C7.14198 0 7.31913 0.0733788 7.44975 0.203994C7.58037 0.33461 7.65374 0.511762 7.65374 0.696481C7.65374 0.881199 7.58037 1.05835 7.44975 1.18897L1.68043 6.9569Z" fill="#F5F0EC" fill-opacity="0.5"/>
</svg>
