<svg width="8" height="8" viewBox="0 0 8 8" fill="none" xmlns="http://www.w3.org/2000/svg">
<path d="M2.86126 1.36335C3.36792 0.454453 3.62124 0 4 0C4.37876 0 4.63207 0.454449 5.13871 1.36335L5.26979 1.59849C5.41379 1.85677 5.48575 1.98592 5.59803 2.07113C5.71027 2.15634 5.85003 2.18796 6.12963 2.25122L6.38419 2.30882C7.36803 2.53143 7.85999 2.64273 7.97703 3.0191C8.09407 3.39545 7.75871 3.78765 7.08795 4.57197L6.91443 4.77489C6.72383 4.99777 6.62851 5.10921 6.58563 5.24709C6.54279 5.38497 6.55719 5.53365 6.58599 5.83105L6.61223 6.10177C6.71363 7.14825 6.76435 7.67149 6.45795 7.90409C6.15151 8.13669 5.69091 7.92461 4.76971 7.50049L4.53139 7.39073C4.26964 7.27021 4.13876 7.20993 4 7.20993C3.86124 7.20993 3.73036 7.27021 3.4686 7.39073L3.23028 7.50049C2.30907 7.92461 1.84847 8.13669 1.54206 7.90409C1.23565 7.67149 1.28635 7.14825 1.38776 6.10177L1.41399 5.83105C1.44281 5.53365 1.45722 5.38497 1.41434 5.24709C1.37147 5.10921 1.27617 4.99777 1.08557 4.77489L0.91204 4.57197C0.2413 3.78765 -0.0940711 3.39545 0.0229688 3.0191C0.140009 2.64273 0.631944 2.53143 1.61581 2.30882L1.87035 2.25122C2.14994 2.18796 2.28973 2.15634 2.40197 2.07113C2.51422 1.98592 2.58621 1.85678 2.73019 1.59849L2.86126 1.36335Z" fill="#FFE2A0"/>
</svg>
