<svg width="16" height="16" viewBox="0 0 16 16" fill="none" xmlns="http://www.w3.org/2000/svg">
<path d="M16 8C16 12.4182 12.4182 16 8 16C3.58172 16 0 12.4182 0 8C0 3.58172 3.58172 0 8 0C12.4182 0 16 3.58172 16 8Z" fill="#FFE2A0"/>
<path fill-rule="evenodd" clip-rule="evenodd" d="M8 4.2C8.33136 4.2 8.6 4.46863 8.6 4.8V7.75144L10.4242 9.57576C10.6586 9.81008 10.6586 10.1899 10.4242 10.4242C10.1899 10.6586 9.81008 10.6586 9.57576 10.4242L7.57576 8.42424C7.4632 8.31176 7.4 8.15912 7.4 8V4.8C7.4 4.46863 7.66864 4.2 8 4.2Z" fill="#222222"/>
</svg>
