<svg width="32" height="32" viewBox="0 0 32 32" fill="none" xmlns="http://www.w3.org/2000/svg">
<path d="M21.9877 19.5756L17.1972 14.7422C16.8832 14.4451 16.4653 14.2803 16.0315 14.2826C15.8213 14.2814 15.613 14.3214 15.4184 14.4002C15.2239 14.4791 15.0469 14.5953 14.8977 14.7422L9.7878 19.7975C9.49038 20.0944 9.32344 20.4961 9.32344 20.9147C9.32344 21.3334 9.49038 21.7351 9.7878 22.032C10.087 22.3271 10.4917 22.4928 10.9136 22.4928C11.3354 22.4928 11.7402 22.3271 12.0394 22.032L14.4346 19.6549V30.4153C14.4346 30.8356 14.6029 31.2386 14.9023 31.5358C15.2018 31.833 15.608 32 16.0315 32C16.455 32 16.8612 31.833 17.1606 31.5358C17.4601 31.2386 17.6283 30.8356 17.6283 30.4153V19.7341L19.7202 21.8101C19.8687 21.9586 20.0453 22.0765 20.2399 22.157C20.4345 22.2375 20.6432 22.2789 20.854 22.2789C21.0648 22.2789 21.2735 22.2375 21.4681 22.157C21.6627 22.0765 21.8393 21.9586 21.9877 21.8101C22.2852 21.5132 22.4521 21.1115 22.4521 20.6929C22.4521 20.2742 22.2852 19.8725 21.9877 19.5756Z" fill="#222222"/>
<path d="M32 15.8673C32 17.9688 31.1588 19.9843 29.6615 21.4702C28.1641 22.9562 26.1333 23.791 24.0157 23.791H21.4927C22.0972 23.665 22.6519 23.3678 23.0896 22.9353C23.3865 22.6409 23.6221 22.2914 23.7828 21.9066C23.9435 21.5218 24.0262 21.1094 24.0262 20.6929C24.0262 20.2764 23.9435 19.8639 23.7828 19.4791C23.6221 19.0944 23.3865 18.7448 23.0896 18.4505L18.2192 13.6962C17.9226 13.4015 17.5703 13.1678 17.1826 13.0083C16.7949 12.8488 16.3793 12.7667 15.9596 12.7667C15.5399 12.7667 15.1243 12.8488 14.7366 13.0083C14.3489 13.1678 13.9967 13.4015 13.7001 13.6962L8.65403 18.6723C8.35709 18.9667 8.12153 19.3162 7.96081 19.701C7.80009 20.0858 7.71736 20.4982 7.71736 20.9147C7.71736 21.3313 7.80009 21.7437 7.96081 22.1285C8.12153 22.5132 8.35709 22.8628 8.65403 23.1571L8.9255 23.379C6.92514 22.856 5.09538 21.8278 3.61447 20.3945C2.13356 18.9611 1.05198 17.1715 0.475114 15.2001C-0.101754 13.2286 -0.154247 11.1425 0.322749 9.14488C0.799745 7.14729 1.78997 5.30638 3.19695 3.80146C4.60393 2.29655 6.37969 1.17896 8.35125 0.557566C10.3228 -0.0638306 12.4229 -0.167845 14.447 0.255656C16.4711 0.679158 18.3502 1.61573 19.9012 2.97414C21.4521 4.33256 22.6221 6.06648 23.2972 8.00701C23.5207 8.00701 23.7443 8.00701 23.9678 8.00701C26.0827 7.99435 28.1161 8.81489 29.622 10.2885C31.1279 11.7622 31.9831 13.7686 32 15.8673Z" fill="#222222"/>
</svg>
