<svg width="17" height="17" viewBox="0 0 17 17" fill="none" xmlns="http://www.w3.org/2000/svg">
<path d="M8.5 0C3.80558 0 0 3.80558 0 8.5C0 13.1944 3.80558 17 8.5 17C13.1944 17 17 13.1944 17 8.5C17 3.80558 13.1944 0 8.5 0ZM13.888 4.84766H12.3385C12.1604 4.10015 11.9294 3.41285 11.655 2.8052C12.1791 3.09659 12.666 3.46252 13.1017 3.89828C13.3962 4.19279 13.6587 4.51078 13.888 4.84766ZM15.0078 8.5C15.0078 9.06804 14.9351 9.62482 14.7948 10.1602H12.6687C12.7219 9.6232 12.75 9.06821 12.75 8.5C12.75 7.93179 12.7219 7.3768 12.6687 6.83984H14.7948C14.9351 7.37518 15.0078 7.93196 15.0078 8.5ZM8.5 15.0078C8.32734 15.0078 7.80114 14.6684 7.27666 13.6195C7.05942 13.185 6.87298 12.69 6.72045 12.1523H10.2795C10.127 12.69 9.94058 13.185 9.7233 13.6195C9.19886 14.6684 8.67266 15.0078 8.5 15.0078ZM6.33559 10.1602C6.27426 9.62071 6.24219 9.06349 6.24219 8.5C6.24219 7.93651 6.27426 7.37929 6.33559 6.83984H10.6644C10.7257 7.37929 10.7578 7.93651 10.7578 8.5C10.7578 9.06349 10.7257 9.62071 10.6644 10.1602H6.33559ZM1.99219 8.5C1.99219 7.93196 2.06494 7.37518 2.20515 6.83984H4.33128C4.27812 7.3768 4.25 7.93179 4.25 8.5C4.25 9.06821 4.27812 9.6232 4.33128 10.1602H2.20515C2.06494 9.62482 1.99219 9.06804 1.99219 8.5ZM8.5 1.99219C8.67266 1.99219 9.19886 2.33156 9.72334 3.38051C9.94058 3.81504 10.127 4.31 10.2796 4.84766H6.72045C6.87298 4.31003 7.05938 3.81504 7.27666 3.38051C7.80114 2.33156 8.32734 1.99219 8.5 1.99219ZM5.34501 2.8052C5.07062 3.41285 4.83959 4.10012 4.66145 4.84766H3.11196C3.34136 4.51078 3.60377 4.19279 3.89828 3.89828C4.33404 3.46252 4.82086 3.09659 5.34501 2.8052ZM3.11196 12.1523H4.66145C4.83959 12.8998 5.07065 13.5872 5.34501 14.1948C4.82086 13.9034 4.334 13.5375 3.89828 13.1017C3.60377 12.8072 3.34133 12.4892 3.11196 12.1523ZM11.655 14.1948C11.9294 13.5872 12.1604 12.8999 12.3385 12.1523H13.888C13.6586 12.4892 13.3962 12.8072 13.1017 13.1017C12.666 13.5375 12.1791 13.9034 11.655 14.1948Z" fill="#F5F0EC" fill-opacity="0.5"/>
</svg>
